<?xml version="1.0" standalone="no"?><svg xmlns="http://www.w3.org/2000/svg" viewBox="0 0 1440 320"><path fill="#2a265f" fill-opacity="1" d="M0,192L40,197.3C80,203,160,213,240,229.3C320,245,400,267,480,245.3C560,224,640,160,720,154.7C800,149,880,203,960,208C1040,213,1120,171,1200,154.7C1280,139,1360,149,1400,154.7L1440,160L1440,320L1400,320C1360,320,1280,320,1200,320C1120,320,1040,320,960,320C880,320,800,320,720,320C640,320,560,320,480,320C400,320,320,320,240,320C160,320,80,320,40,320L0,320Z"></path></svg>